<svg width="40" height="40" viewBox="0 0 40 40" fill="none" xmlns="http://www.w3.org/2000/svg">
<path d="M33.6333 20V2.95667L31.9317 1.25H8.07001L6.36501 2.95667V20L1.25168 25.1133L3.80835 33.635H9.77501L8.07001 38.7483H31.93L30.2267 33.635H36.1917L38.7483 25.1133L33.6333 20Z" fill="white"/>
<path d="M25.1133 7.72833L14.8867 13.695L20 16.59L25.1133 13.6917V7.72833ZM1.25168 25.1133H38.75L36.1933 33.635H33.6333L31.9283 28.5217H8.07001L6.36501 33.635H3.80835L1.25168 25.1133Z" fill="#BBD8FF"/>
<path d="M28.5217 28.5217L9.26334 35.3383H30.7367L28.5217 28.5217Z" fill="#BBD8FF"/>
<path d="M6.36667 20H33.6333V2.955L31.9283 1.25H8.06833L6.36667 2.95667V20ZM6.36667 20L1.25 25.1133H38.7483L33.6367 20H6.36667Z" stroke="#092F63" stroke-width="1.66667" stroke-miterlimit="10" stroke-linejoin="round"/>
<path d="M6.36668 33.6333H3.80668L1.25168 25.115H38.75L36.1933 33.6367H33.6333" stroke="#092F63" stroke-width="1.66667" stroke-miterlimit="10" stroke-linecap="round" stroke-linejoin="round"/>
<path d="M16.5917 6.70667V1.25M16.5917 20V14.5467M23.4083 6.70667V1.25M23.4083 20V14.5467" stroke="#092F63" stroke-width="1.66667" stroke-miterlimit="10" stroke-linejoin="round"/>
<path d="M28.5217 4.66168H30.2267M8.07001 28.5217H31.93M9.26334 35.34H30.7367M17.4433 10.6267V8.92168L19.1483 8.07002M31.93 38.7483H8.07001L11.4783 28.5217H28.5217L31.93 38.7483Z" stroke="#092F63" stroke-width="1.66667" stroke-miterlimit="10" stroke-linecap="round" stroke-linejoin="round"/>
<path d="M14.8867 7.72835L20 4.66168L25.1133 7.72835V13.695L20 16.59L14.8867 13.6933V7.72835Z" stroke="#092F63" stroke-width="1.66667" stroke-miterlimit="10" stroke-linecap="round" stroke-linejoin="round"/>
</svg>
