<svg width="40" height="40" viewBox="0 0 40 40" fill="none" xmlns="http://www.w3.org/2000/svg">
<path d="M34.7 9.38334H28.1667V6.44334L20 1.21667L11.8333 6.44334V9.38334H5.29999L2.03333 38.7833H37.9667L34.7 9.38334Z" fill="white"/>
<path d="M20 1.21667V6.93334L23.2667 9.05667V12.3233L20 14.2833V25.7167L28.1667 13.4667V6.44334L20 1.21667Z" fill="#BBD8FF"/>
<path d="M31.4333 9.3833H34.7L37.9667 38.7833H2.03333L5.29999 9.3833H8.56666M3.17666 28.9833H36.8233M29.8 17.55H35.68M4.31999 17.55H10.2M11.0167 38.7833L12.16 21.6333M28.9833 38.7833L27.84 21.6333" stroke="#092F63" stroke-width="1.66667" stroke-miterlimit="10" stroke-linecap="round" stroke-linejoin="round"/>
<path d="M20 25.7167L28.1666 13.4667V6.44334L20 1.21667L11.8333 6.44334V13.4667L20 25.7167Z" stroke="#092F63" stroke-width="1.66667" stroke-miterlimit="10" stroke-linecap="round" stroke-linejoin="round"/>
<path d="M23.2667 12.3233L20 14.2833L16.7333 12.3233V9.05668L20 6.93335L23.2667 9.05668V12.3233Z" stroke="#092F63" stroke-width="1.66667" stroke-miterlimit="10" stroke-linecap="round" stroke-linejoin="round"/>
</svg>
