<svg width="20" height="20" viewBox="0 0 20 20" fill="none" xmlns="http://www.w3.org/2000/svg">
<g clip-path="url(#clip0_738_632)">
<path d="M14.791 5.41675L13.3327 2.91675L14.791 0.416748H17.7077L19.166 2.91675L17.7077 5.41675H14.791ZM17.4993 15.4167L18.3327 12.9167H17.916V10.4167H15.416V12.9167H7.08268V11.2501H11.2493V2.91675H0.416016V11.2501H4.58268V12.9167H0.416016L1.24935 15.4167H2.08268L1.68935 19.5509L4.58268 15.4167H14.166L17.0593 19.5509L16.666 15.4167H17.4993ZM1.68602 19.5834L1.68935 19.5509L1.66602 19.5834H1.68602ZM17.0827 19.5834L17.0593 19.5509L17.0627 19.5834H17.0827Z" fill="white"/>
<path d="M11.2493 9.58343H0.416016L11.2493 2.91677V9.58343ZM0.832682 14.1668L1.24935 15.4168H17.4993L17.916 14.1668H0.832682ZM14.2535 4.49593L14.791 5.41677H17.7077L19.166 2.91677L17.9377 0.811768L14.2535 4.49593Z" fill="#D9D9D9"/>
<path d="M0.416016 9.58336H11.2493M9.58268 12.9167V15.4167M7.08268 11.25V12.9167M4.58268 11.25V12.9167M4.16602 12.9167H7.49935M16.2493 2.13086V3.22169L17.0827 3.75003M16.2493 10.4167V8.75003M17.0827 10.4167L18.3327 8.75003M1.66602 19.5834L4.58268 15.4167H2.08268L1.68602 19.5834H1.66602ZM17.0827 19.5834L14.166 15.4167H16.666L17.0627 19.5834H17.0827ZM11.2493 2.91669H0.416016V11.25H11.2493V2.91669ZM17.916 10.4167H15.416V12.9167H17.916V10.4167Z" stroke="#808080" stroke-linecap="round" stroke-linejoin="round"/>
<path d="M14.791 5.41675L13.3327 2.91675L14.791 0.416748H17.7077L19.166 2.91675L17.7077 5.41675H14.791ZM17.4993 15.4167H1.24935L0.416016 12.9167H18.3327L17.4993 15.4167Z" stroke="#808080" stroke-linecap="round" stroke-linejoin="round"/>
</g>
<defs>
<clipPath id="clip0_738_632">
<rect width="20" height="20" fill="white"/>
</clipPath>
</defs>
</svg>
