<svg width="20" height="20" viewBox="0 0 20 20" fill="none" xmlns="http://www.w3.org/2000/svg">
<g clip-path="url(#clip0_738_470)">
<path d="M16.5342 0.608398H3.46758L1.01758 3.0584H2.65091V14.4917H7.55091L10.0009 19.3917L12.4509 14.4917H17.3509V3.0584H18.9842L16.5342 0.608398Z" fill="white"/>
<path d="M12.4504 5.91675L2.65039 11.2251H12.4504V5.91675ZM17.3504 12.8584H2.65039V14.4917H7.55039L10.0004 19.3917L12.4504 14.4917H17.3504V12.8584Z" fill="#BBD8FF"/>
<path d="M18.9842 3.05835V5.91668L17.7592 7.14168L16.5342 5.91668L14.9009 7.14168L13.2676 5.91668L11.6342 7.14168L10.0009 5.91668L8.36758 7.14168L6.73424 5.91668L5.10091 7.14168L3.46758 5.91668L2.24258 7.14168L1.01758 5.91668V3.05835H18.9842Z" fill="#BBD8FF"/>
<path d="M17.3504 6.7334V14.4917H12.4504L10.0004 19.3917L7.55039 14.4917H2.65039V6.7334M2.65039 11.2251H12.4504M12.4504 12.8584V6.52923M14.0837 12.0417V9.59173M3.46706 3.0584L5.91706 0.608398M6.73372 3.0584L8.36706 0.608398M10.0004 3.0584V0.608398" stroke="#092F63" stroke-linecap="round" stroke-linejoin="round"/>
<path d="M10.0009 5.91673L8.36758 7.14173L6.73424 5.91673M10.0009 5.91673V3.0584M10.0009 5.91673L11.6342 7.14173L13.2676 5.91673M6.73424 5.91673L5.10091 7.14173L3.46758 5.91673M6.73424 5.91673V3.0584M3.46758 5.91673L2.24258 7.14173L1.01758 5.91673V3.0584M3.46758 5.91673V3.0584M1.01758 3.0584H18.9842M1.01758 3.0584L3.46758 0.608398H16.5342L18.9842 3.0584M14.0842 0.608398L16.5342 3.0584V5.91673M11.6342 0.608398L13.2676 3.0584V5.91673M13.2676 5.91673L14.9009 7.14173L16.5342 5.91673M16.5342 5.91673L17.7592 7.14173L18.9842 5.91673V3.0584" stroke="#092F63" stroke-linecap="round" stroke-linejoin="round"/>
</g>
<defs>
<clipPath id="clip0_738_470">
<rect width="20" height="20" fill="white"/>
</clipPath>
</defs>
</svg>
