<svg width="40" height="40" viewBox="0 0 40 40" fill="none" xmlns="http://www.w3.org/2000/svg">
<g clip-path="url(#clip0_965_5325)">
<circle cx="20" cy="20" r="19.5" fill="#5290FF" stroke="#092F63" stroke-linecap="round"/>
<path d="M22.2964 24.011L22.1576 24.811L20.0638 25.1735L19.7038 27.266L17.6101 27.626L12.7688 22.786L9.5876 22.1735V24.011H5.9126V12.986H9.5876V14.8235L12.6501 14.211L17.0826 12.3735L19.4051 14.696L21.3863 12.986H23.6751L27.3501 14.8235L30.4126 15.436V14.211H34.0876V25.236H30.4126V23.3985L27.9626 24.011H22.2964Z" fill="white"/>
<path d="M34.0876 16.0487H30.4126V25.2362H34.0876V16.0487ZM9.5876 14.8237H5.9126V24.0112H9.5876V14.8237Z" fill="#BBD8FF"/>
<path d="M23.0627 16.6608L17.4689 18.4983L16.3252 17.3546L21.3877 12.9858H23.6752L27.3502 14.8233L30.4127 15.4358V23.3983L27.9627 24.0108H22.2952" stroke="#092F63" stroke-width="0.966183" stroke-linecap="round" stroke-linejoin="round"/>
<path d="M9.5876 22.1737L12.7688 22.7862L17.6101 27.6262L19.7038 27.2662L20.0638 25.1725L22.1576 24.81L22.5188 22.7175L24.6113 22.3575L24.9726 20.2637L21.7888 17.08M19.4051 14.6962L17.0826 12.375L12.6501 14.2112L9.5876 14.8237M9.5876 12.9862H5.9126V24.0112H9.5876V12.9862ZM34.0876 14.2112H30.4126V25.2362H34.0876V14.2112Z" stroke="#092F63" stroke-width="0.966183" stroke-linejoin="round"/>
</g>
<defs>
<clipPath id="clip0_965_5325">
<rect width="40" height="40" fill="white"/>
</clipPath>
</defs>
</svg>
