<svg width="40" height="40" viewBox="0 0 40 40" fill="none" xmlns="http://www.w3.org/2000/svg">
<circle cx="20" cy="20" r="19.5" fill="white" stroke="#808080" stroke-linecap="round"/>
<path d="M22.2963 24.011L22.1576 24.811L20.0638 25.1735L19.7038 27.266L17.6101 27.626L12.7688 22.786L9.5876 22.1735V24.011H5.9126V12.986H9.5876V14.8235L12.6501 14.211L17.0826 12.3735L19.4051 14.696L21.3863 12.986H23.6751L27.3501 14.8235L30.4126 15.436V14.211H34.0876V25.236H30.4126V23.3985L27.9626 24.011H22.2963Z" fill="white"/>
<path d="M34.0876 16.0487H30.4126V25.2362H34.0876V16.0487ZM9.5876 14.8237H5.9126V24.0112H9.5876V14.8237Z" fill="#EBEBEB"/>
<path d="M23.0627 16.6608L17.4689 18.4983L16.3252 17.3546L21.3877 12.9858H23.6752L27.3502 14.8233L30.4127 15.4358V23.3983L27.9627 24.0108H22.2952" stroke="#808080" stroke-width="0.966183" stroke-linecap="round" stroke-linejoin="round"/>
<path d="M9.5876 22.1733L12.7688 22.7858L17.6101 27.6258L19.7038 27.2658L20.0638 25.172L22.1576 24.8095L22.5188 22.717L24.6113 22.357L24.9726 20.2633L21.7888 17.0795M19.4051 14.6958L17.0826 12.3745L12.6501 14.2108L9.5876 14.8233M9.5876 12.9858H5.9126V24.0108H9.5876V12.9858ZM34.0876 14.2108H30.4126V25.2358H34.0876V14.2108Z" stroke="#808080" stroke-width="0.966183" stroke-linejoin="round"/>
</svg>
