<svg width="20" height="20" viewBox="0 0 20 20" fill="none" xmlns="http://www.w3.org/2000/svg">
<g clip-path="url(#clip0_738_586)">
<path d="M15.5383 6.59169H12.3383L13.2758 5.73919L13.4075 4.88669H14.6858L15.9642 3.18252L15.125 0.625854L14.4225 1.85919L12.5558 2.33085V4.03502L11.7033 4.16669L9.49917 6.59169H4.46L0.625 12.9834L2.08833 15.1134H5.45917L3.51167 17.8559L4.46 19.3742H15.5383L19.3733 12.9825L15.5383 6.59169Z" fill="white"/>
<path d="M4.46094 19.3742L5.73927 17.67H14.2609L17.2443 12.9825L14.2609 8.29584L15.5393 6.59167L19.3743 12.9833L15.5393 19.3742H4.46094ZM5.77927 12.5567L13.2768 5.73917L13.4093 4.88667L12.9884 4.46667L4.9001 12.5567H5.77927Z" fill="#D9D9D9"/>
<path d="M12.5566 4.03502V2.33085L14.4233 1.85919L15.1258 0.625854L15.965 3.18252L14.6866 4.88669H13.4083L12.5566 4.03502Z" stroke="#808080" stroke-miterlimit="10" stroke-linecap="round" stroke-linejoin="round"/>
<path d="M12.5559 4.03503L13.4076 4.8867L13.2759 5.7392L5.77839 12.5559H4.07422L11.7034 4.1667L12.5559 4.03503Z" stroke="#808080" stroke-miterlimit="10" stroke-linecap="round" stroke-linejoin="round"/>
<path d="M7.4425 6.59165H4.46L0.625 12.9833L2.08833 15.1133H5.45917L3.51167 17.8558L4.46 19.3742H15.5383L19.3733 12.9825L15.5383 6.59082H14.3533M3.27417 12.5567H8.295" stroke="#808080" stroke-miterlimit="10" stroke-linecap="round" stroke-linejoin="round"/>
<path d="M14.259 9.57336L12.9815 10.8517L14.2599 12.1292L15.5374 10.8509L14.259 9.57336ZM13.8324 13.8342L12.5557 15.1125L13.834 16.39L15.1115 15.1117L13.8324 13.8342ZM9.99904 15.1125L8.7207 16.3909L9.99904 17.6684L11.2774 16.39L9.99904 15.1125Z" stroke="#808080" stroke-miterlimit="10" stroke-linecap="round" stroke-linejoin="round"/>
</g>
<defs>
<clipPath id="clip0_738_586">
<rect width="20" height="20" fill="white"/>
</clipPath>
</defs>
</svg>
