<svg width="300" height="300" viewBox="0 0 300 300" fill="none" xmlns="http://www.w3.org/2000/svg">
<path d="M226.7 245.875V290.613H73.3V245.863L22.175 201.125V66.9127L150 9.3877L277.825 66.9127V201.125L226.7 245.875Z" fill="white"/>
<path d="M245.875 86.0876V188.338L194.75 233.088V290.613H226.7V245.863L277.825 201.125V66.9126L245.875 86.0876Z" fill="#BBD8FF"/>
<path d="M150 252.25V290.613M111.65 252.25V290.613M188.35 252.25V290.613M226.7 245.875V290.613H73.3V245.863L22.175 201.125V66.9127L150 9.3877L277.825 66.9127V201.125L226.7 245.875Z" stroke="#092F63" stroke-width="10" stroke-miterlimit="10" stroke-linecap="round" stroke-linejoin="round"/>
<path d="M130.825 207.525L150 181.95L169.175 207.525" stroke="#092F63" stroke-width="10" stroke-miterlimit="10" stroke-linecap="round" stroke-linejoin="round"/>
<path d="M150 252.25V290.613M111.65 252.25V290.613M188.35 252.25V290.613M226.7 245.875V290.613H73.3V245.863L22.175 201.125V66.9127L150 9.3877L277.825 66.9127V201.125L226.7 245.875Z" stroke="#092F63" stroke-width="10" stroke-miterlimit="10" stroke-linecap="round" stroke-linejoin="round"/>
<path d="M130.825 207.525L150 181.95L169.175 207.525M73.3 150L124.425 98.875M124.437 150L73.3125 98.875M226.7 150L175.575 98.875M175.562 150L226.687 98.875" stroke="#092F63" stroke-width="10" stroke-miterlimit="10" stroke-linecap="round" stroke-linejoin="round"/>
</svg>
