<svg width="40" height="40" viewBox="0 0 40 40" fill="none" xmlns="http://www.w3.org/2000/svg">
<path d="M7.77333 11.0331L1.25 18.2948H10.1917L11.0317 30.5948L30.595 38.7481L15.925 15.0198L7.77333 11.0331ZM31.4033 1.25146L15.925 15.0181L24.8017 29.3731L31.4033 1.25146Z" fill="white"/>
<path d="M15.925 15.0198L13.48 13.8231L10.5317 23.2731L11.0333 30.5965L15.925 15.0198ZM7.77333 11.0331L10.1933 18.2948H1.25L7.77333 11.0331ZM25.6283 30.7131L38.7483 5.32812L29.445 9.58812L24.8017 29.3731L25.6283 30.7131Z" fill="#D9D9D9"/>
<path d="M15.925 15.0196L7.77333 11.0329L1.25 18.2946H10.1917L11.0317 30.5946L30.595 38.7479L15.925 15.0196ZM15.925 15.0196L31.4033 1.25293L24.8017 29.3729" stroke="black" stroke-width="1.66667" stroke-miterlimit="10" stroke-linejoin="round"/>
<path d="M29.445 9.58812L38.7483 5.32812L25.6283 30.7131M7.77332 11.0331L10.1933 18.2948M11.035 30.5931L15.925 15.0198" stroke="black" stroke-width="1.66667" stroke-miterlimit="10" stroke-linejoin="round"/>
</svg>
