<svg width="24" height="24" viewBox="0 0 24 24" fill="none" xmlns="http://www.w3.org/2000/svg">
<g clip-path="url(#clip0_2046_3562)">
<path d="M3.4469 23.2264L9.3269 20.0184H16.8109L22.6909 16.8114L22.1559 15.2074L16.8109 16.2774L9.8609 15.7424L11.9999 13.0694L11.4659 11.4654L6.1199 14.6734L3.4469 17.8804L0.774902 18.9504L3.4469 23.2264ZM23.2259 0.775391H3.9819V11.4654H23.2259V0.775391Z" fill="white"/>
<path d="M23.2259 4.51639V0.775391H19.4839L23.2259 4.51639ZM19.4839 11.4664H23.2249V7.72439L19.4839 11.4664ZM3.98193 7.72439V11.4664H7.72393L3.98193 7.72439ZM3.98193 4.51639V0.775391H7.72393L3.98193 4.51639Z" fill="#BBD8FF"/>
<path d="M3.98193 4.51641L7.72393 0.775414M3.98193 7.72441L7.72393 11.4664H3.98193V0.774414H23.2259V11.4644H14.6729M23.2259 4.51641L19.4839 0.775414M23.2259 7.72441L19.4839 11.4664" stroke="#092F63" stroke-linecap="round" stroke-linejoin="round"/>
<path d="M14.6729 3.98211H12.5349L11.9999 5.05011L12.5349 6.11911H14.6729L15.2069 7.18911L14.6729 8.25711H12.5349M13.6039 3.98211V2.91211M13.6039 9.32711V8.25811M3.4469 23.2261L9.3269 20.0181H16.8109L22.6909 16.8111L22.1559 15.2071L16.8109 16.2771L9.8609 15.7421L11.9999 13.0691L11.4659 11.4651L6.1199 14.6731L3.4469 17.8801L0.774902 18.9501" stroke="#092F63" stroke-linecap="round" stroke-linejoin="round"/>
</g>
<defs>
<clipPath id="clip0_2046_3562">
<rect width="24" height="24" fill="white"/>
</clipPath>
</defs>
</svg>
