<svg width="40" height="40" viewBox="0 0 40 40" fill="none" xmlns="http://www.w3.org/2000/svg">
<path d="M30.8332 15.0001C31.3976 14.9978 31.9382 14.9217 32.4548 14.7717C32.4848 15.1239 32.4998 15.4795 32.4998 15.8384V22.5051L34.8632 27.7717C34.9706 28.0126 35.0162 28.2765 34.9957 28.5395C34.9753 28.8024 34.8895 29.0561 34.7461 29.2775C34.6027 29.4989 34.4063 29.6809 34.1747 29.8071C33.9431 29.9333 33.6836 29.9996 33.4198 30.0001H6.5865C6.32238 30 6.06247 29.9339 5.83044 29.8077C5.59841 29.6816 5.40162 29.4994 5.25799 29.2777C5.11437 29.0561 5.02847 28.802 5.00812 28.5387C4.98778 28.2754 5.03363 28.0111 5.1415 27.7701L7.49983 22.5034V15.8167L7.50816 15.4001C7.84316 5.81839 18.3965 0.166724 26.5582 5.19506C23.5015 8.48339 25.1498 13.8501 29.5265 14.8534C29.9551 14.9514 30.3935 15.0006 30.8332 15.0001Z" fill="#D9D9D9"/>
<path d="M30.8332 13.3333C34.0415 13.3333 36.0448 9.86167 34.4415 7.08333C34.0758 6.44994 33.5498 5.92395 32.9164 5.55825C32.283 5.19255 31.5645 5.00002 30.8332 5C27.6248 5 25.6215 8.47167 27.2248 11.25C27.5905 11.8834 28.1165 12.4094 28.7499 12.7751C29.3833 13.1408 30.1018 13.3333 30.8332 13.3333ZM24.9298 31.6717C24.2882 35.4667 19.7798 37.1433 16.8132 34.69C15.8888 33.9256 15.2701 32.8543 15.0698 31.6717H24.9298Z" fill="#D9D9D9"/>
</svg>
