<svg width="24" height="24" viewBox="0 0 24 24" fill="none" xmlns="http://www.w3.org/2000/svg">
<path d="M21.212 12.0002L20.33 12.8822V2.2002H0.72998V16.9002H16.312L14.058 19.1542L13.47 21.8002L16.116 21.2122L23.27 14.0582L21.212 12.0002Z" fill="white"/>
<path d="M18.272 14.9406H0.72998V16.9006H16.312L18.272 14.9406ZM20.33 5.14062H0.72998V8.08063H20.33V5.14062ZM22.192 13.0786L23.27 14.0586L16.116 21.2126L13.47 21.8006L22.192 13.0786Z" fill="#BBD8FF"/>
<path d="M12.49 16.9002H0.72998V2.2002H20.33V10.0402M0.72998 5.1402H20.33M0.72998 8.0802H20.33M3.66998 12.0002H5.62998M7.58998 12.0002H12.49M4.64998 13.9602H3.66998M10.53 13.9602H6.60998M14.058 19.1542L21.212 12.0002L23.27 14.0582L16.116 21.2122L13.47 21.8002L14.058 19.1542Z" stroke="#092F63" stroke-miterlimit="10" stroke-linecap="round" stroke-linejoin="round"/>
</svg>
