<svg width="24" height="24" viewBox="0 0 24 24" fill="none" xmlns="http://www.w3.org/2000/svg">
<path d="M23.249 5.35303H0.75V9.95503L1.773 10.255V21.715H22.225V10.255L23.248 9.95503L23.249 5.35303Z" fill="white"/>
<path d="M23.249 7.39807H0.75V9.95507L1.773 10.2551V12.3011L9.953 14.7071H10.104L9.954 14.5571V10.4671H14.044V14.5571L13.894 14.7071H14.044L22.225 12.3011V10.2551L23.248 9.95507L23.249 7.39807Z" fill="#D9D9D9"/>
<path d="M11.9994 13.534V12.51M1.77344 10.255V21.715H22.2254V10.255M16.6014 5.35303H7.39744L8.42044 2.28503H15.5784L16.6014 5.35303Z" stroke="#808080" stroke-linecap="round" stroke-linejoin="round"/>
<path d="M14.0451 14.557L12.0001 16.602L9.95508 14.557V10.467H14.0451V14.557Z" stroke="#808080" stroke-linecap="round" stroke-linejoin="round"/>
<path d="M14.045 12.662L23.249 9.95503V5.35303H0.75V9.95503L9.954 12.662" stroke="#808080" stroke-linecap="round" stroke-linejoin="round"/>
</svg>
