<svg width="24" height="24" viewBox="0 0 24 24" fill="none" xmlns="http://www.w3.org/2000/svg">
<path d="M22.2259 17.624L11.9999 23.25L1.77393 17.624V6.376L11.9999 0.75L22.2259 6.375V17.624Z" fill="white"/>
<path d="M20.0629 16.2568L11.9999 20.6918L3.93693 16.2568L1.77393 17.6238L11.9999 23.2498L22.2259 17.7918L20.0629 16.2568Z" fill="#BBD8FF"/>
<path d="M22.2259 17.624L11.9999 23.25L1.77393 17.624V6.376L11.9999 0.75L22.2259 6.375V17.624Z" stroke="#092F63" stroke-linecap="round" stroke-linejoin="round"/>
<path d="M17.113 17.1125V14.5565L12 13.0215L6.88696 14.5555V17.1115M12 15.0675V17.1125M15.068 10.4655L12 11.9995L8.93196 10.4655V6.88654L12 5.35254L15.068 6.88654V10.4655Z" stroke="#092F63" stroke-linecap="round" stroke-linejoin="round"/>
<path d="M15.0679 7.90954H11.4879L8.93286 6.88654L11.9999 5.35254L15.0679 6.88654V7.90954Z" fill="#BBD8FF"/>
<path d="M15.0679 7.90954H11.4879L8.93286 6.88654L11.9999 5.35254L15.0679 6.88654V7.90954Z" stroke="#092F63" stroke-linejoin="round"/>
</svg>
