<svg width="301" height="300" viewBox="0 0 301 300" fill="none" xmlns="http://www.w3.org/2000/svg">
<path d="M143.21 193.399L144.624 193.5L159.777 193.399H172.91H182.81H192.508H200.63H213.5V24L183.8 57.8797V73.8231H169.94L65 193.399H143.21ZM163.01 93.7523H182.81V113.682H163.01V93.7523Z" fill="#BBD8FF"/>
<path d="M117.5 193.5V148.5H153.5V193.5" stroke="#092F63" stroke-width="4" stroke-linejoin="bevel"/>
<path d="M166.25 193.5H63.5V24H213.5V109.5M103.337 53.4072H83.4187V73.4205H103.337V53.4072ZM143.175 53.4072H123.256V73.4205H143.175V53.4072ZM103.337 93.4337H83.4187V113.447H103.337V93.4337ZM103.337 133.46H83.4187V153.474H103.337V133.46ZM143.175 93.4337H123.256V113.447H143.175V93.4337ZM183.012 53.4072H163.093V73.4205H183.012V53.4072ZM183.012 93.4337H163.093V113.447H183.012V93.4337Z" stroke="#092F63" stroke-width="4" stroke-miterlimit="10" stroke-linecap="round" stroke-linejoin="round"/>
<path d="M252.482 272.774L241.898 235.73L207.5 227.792L173.102 235.73L162.518 272.774H252.482ZM231.314 213.239L207.5 222.5L183.686 213.239V181.487L207.5 172.226L231.314 181.487V213.239Z" fill="white"/>
<path d="M252.482 272.774L241.898 235.73L207.5 227.792L173.102 235.73L162.518 272.774H252.482Z" fill="white"/>
<path d="M189.64 179.174L207.5 188.102H231.314V181.487L207.5 172.226L189.64 179.174Z" fill="#BBD8FF"/>
<path d="M233.785 233.858L207.5 272.774L181.216 233.858" stroke="#BBD8FF" stroke-width="4" stroke-linecap="round" stroke-linejoin="round"/>
<path d="M199.562 201.332V198.686M215.438 201.332V198.686M252.482 272.774L241.898 235.73L207.5 227.792L173.102 235.73L162.518 272.774H252.482ZM231.314 213.239L207.5 222.5L183.686 213.239V181.487L207.5 172.226L231.314 181.487V213.239Z" stroke="#092F63" stroke-width="4" stroke-linecap="round" stroke-linejoin="round"/>
<path d="M189.64 179.174L207.5 188.102H231.314V182.81M220.483 230.789L207.5 251.606L194.518 230.789L207.5 227.792L220.483 230.789Z" stroke="#092F63" stroke-width="4" stroke-linecap="round" stroke-linejoin="round"/>
<path d="M189.64 179.174L207.5 188.102H231.314V181.487L207.5 172.226L189.64 179.174ZM252.482 272.774L241.898 235.73L207.5 227.792L173.102 235.73L162.518 272.774H252.482Z" stroke="#092F63" stroke-width="4" stroke-linecap="round" stroke-linejoin="round"/>
</svg>
