<svg width="223" height="223" viewBox="0 0 223 223" fill="none" xmlns="http://www.w3.org/2000/svg">
<path d="M106.081 143.76L107.133 143.835L118.396 143.76H128.158H135.517H142.726H148.764H158.33V17.84L136.253 43.0239V54.8752H125.951L47.9453 143.76H106.081ZM120.799 69.6893H135.517V84.5033H120.799V69.6893Z" fill="#E2EFFF"/>
<path d="M86.9697 143.835V110.385H113.73V143.835" stroke="#647B99" stroke-width="2" stroke-linejoin="bevel"/>
<path d="M123.208 143.835H46.8301V17.84H158.33V81.395M76.4425 39.6994H61.6363V54.5759H76.4425V39.6994ZM106.055 39.6994H91.2488V54.5759H106.055V39.6994ZM76.4425 69.4524H61.6363V84.329H76.4425V69.4524ZM76.4425 99.2055H61.6363V114.082H76.4425V99.2055ZM106.055 69.4524H91.2488V84.329H106.055V69.4524ZM135.667 39.6994H120.861V54.5759H135.667V39.6994ZM135.667 69.4524H120.861V84.329H135.667V69.4524Z" stroke="#647B99" stroke-width="2" stroke-miterlimit="10" stroke-linecap="round" stroke-linejoin="round"/>
<path d="M187.307 202.762L179.439 175.226L153.87 169.325L128.301 175.226L120.434 202.762H187.307ZM171.572 158.508L153.87 165.392L136.168 158.508V134.905L153.87 128.021L171.572 134.905V158.508Z" fill="white"/>
<path d="M187.307 202.762L179.439 175.226L153.87 169.325L128.301 175.226L120.434 202.762H187.307Z" fill="white"/>
<path d="M140.594 133.186L153.87 139.823H171.572V134.905L153.87 128.021L140.594 133.186Z" fill="#E2EFFF"/>
<path d="M173.408 173.834L153.87 202.762L134.332 173.834" stroke="#E2EFFF" stroke-width="2" stroke-linecap="round" stroke-linejoin="round"/>
<path d="M147.97 149.657V147.69M159.771 149.657V147.69M187.307 202.762L179.439 175.226L153.87 169.325L128.301 175.226L120.434 202.762H187.307ZM171.572 158.508L153.87 165.392L136.168 158.508V134.905L153.87 128.021L171.572 134.905V158.508Z" stroke="#647B99" stroke-width="2" stroke-linecap="round" stroke-linejoin="round"/>
<path d="M140.594 133.186L153.87 139.823H171.572V135.889M163.52 171.553L153.87 187.027L144.22 171.553L153.87 169.325L163.52 171.553Z" stroke="#647B99" stroke-width="2" stroke-linecap="round" stroke-linejoin="round"/>
<path d="M140.594 133.186L153.87 139.823H171.572V134.905L153.87 128.021L140.594 133.186ZM187.307 202.762L179.439 175.226L153.87 169.325L128.301 175.226L120.434 202.762H187.307Z" stroke="#647B99" stroke-width="2" stroke-linecap="round" stroke-linejoin="round"/>
</svg>
