<svg width="32" height="32" viewBox="0 0 32 32" fill="none" xmlns="http://www.w3.org/2000/svg">
<circle cx="16" cy="16" r="15.5" fill="#5290FF" stroke="#092F63" stroke-linecap="round"/>
<path d="M27.249 7.82031H4.75V24.1803H27.25L27.249 7.82031Z" fill="white"/>
<path d="M27.249 22.1367H4.75V24.1817H27.25L27.249 22.1367ZM7.82 14.9777H10.887V10.8877L7.82 14.9777ZM25.204 20.0907L23.158 18.0457L21.624 19.5797L20.09 18.0457L18.045 20.0907L20.09 22.1367L21.624 20.6027L23.158 22.1367L25.204 20.0907Z" fill="#BBD8FF"/>
<path d="M27.249 7.82031H4.75V24.1803H27.25L27.249 7.82031Z" stroke="#092F63" stroke-width="1.25" stroke-miterlimit="10" stroke-linecap="round" stroke-linejoin="round"/>
<path d="M7.82009 19.0687H9.86409M11.9101 19.0687H16.0001M8.84209 21.1137H7.81909M13.9551 21.1137H10.8871M10.8871 10.8877H7.81909V14.9777H10.8871V10.8877ZM25.2041 20.0907L23.1581 18.0457L21.6241 19.5797L20.0901 18.0457L18.0451 20.0907L20.0901 22.1367L21.6241 20.6027L23.1581 22.1367L25.2041 20.0907Z" stroke="#092F63" stroke-width="1.25" stroke-miterlimit="10" stroke-linecap="round" stroke-linejoin="round"/>
</svg>
