<svg width="21" height="20" viewBox="0 0 21 20" fill="none" xmlns="http://www.w3.org/2000/svg">
<path d="M15.6705 11.2251H16.0789L16.8955 10.0001L16.4872 8.77506L17.3039 7.55006L16.4872 6.32506L17.3039 5.10006L16.4872 3.87506H14.8539L16.4872 0.608398H10.7705L11.5055 2.0784L9.54554 3.0584L8.32054 5.5084L5.46221 6.32506V5.5084H3.01221V11.2251H5.46221V10.4084L11.1789 11.2251L8.72887 13.6751V17.7584L13.6289 19.3917L18.5289 17.7584V13.6751L15.6705 11.2251Z" fill="white"/>
<path d="M8.72887 16.1243V17.7585L13.6289 19.3918L18.5289 17.7585V16.1243L13.6289 17.7576L8.72887 16.1243ZM5.46221 6.73348H3.01221V11.2251H5.46221V6.73348ZM11.7914 2.65015L12.4039 3.87515H14.8539L15.4664 2.65015H11.7914Z" fill="#BBD8FF"/>
<path d="M14.4455 13.6751H12.8122L12.4038 14.4918L12.8122 15.3084H14.4455L14.8538 16.1251L14.4455 16.9418H12.8122M13.6288 13.6751V12.8584M13.6288 17.7584V16.9418M16.0788 11.2251H11.1788L5.46216 10.4084" stroke="#092F63" stroke-width="0.833333" stroke-linecap="round" stroke-linejoin="round"/>
<path d="M12.4039 3.87504H16.4872L17.3039 5.10004L16.4872 6.32504L17.3039 7.55004L16.4872 8.77504L16.8955 10L16.0789 11.225M5.46221 6.32504L8.32054 5.50837L9.54554 3.05837L11.5055 2.07837M5.46221 5.50837H3.01221V11.225H5.46221V5.50837Z" stroke="#092F63" stroke-width="0.833333" stroke-linecap="round" stroke-linejoin="round"/>
<path d="M15.6704 11.2251L18.5288 13.6751V17.7584L13.6288 19.3918L8.72876 17.7584V13.6751L11.1788 11.2251" stroke="#092F63" stroke-width="0.833333" stroke-linejoin="round"/>
<path d="M10.7705 0.608398L12.4038 3.87507H14.8538L16.4872 0.608398H10.7705Z" stroke="#092F63" stroke-width="0.833333" stroke-linecap="round" stroke-linejoin="round"/>
</svg>
