<svg width="223" height="223" viewBox="0 0 223 223" fill="none" xmlns="http://www.w3.org/2000/svg">
<path d="M122.266 89.2644L102.158 99.3182L82.0506 89.2644V62.4588L102.158 52.405L122.266 62.4588V89.2644ZM135.668 132.829V116.083L102.158 106.023L68.6477 116.077V132.829H45.1846L58.594 186.446H145.722L159.125 132.835L135.668 132.829Z" fill="white"/>
<path d="M102.152 146.231L92.098 156.292L102.158 166.339L112.212 156.292L102.152 146.231ZM55.2451 173.037L58.5942 186.446H145.722L149.072 173.044L55.2451 173.037ZM102.158 52.405L82.0508 62.4588L98.8092 72.5125H122.266V62.4588L102.158 52.405Z" fill="#E2EFFF"/>
<path d="M28.4326 186.446H175.89M135.668 132.829V116.083L102.158 106.023L68.6477 116.077V132.829M102.158 119.426V132.829" stroke="#647B99" stroke-width="2" stroke-linecap="round" stroke-linejoin="round"/>
<path d="M122.266 89.2644L102.158 99.3182L82.0508 89.2644V62.4588L102.158 52.405L122.266 62.4588V89.2644Z" stroke="#647B99" stroke-width="2" stroke-linejoin="round"/>
<path d="M82.0508 62.4588L98.8092 72.5126H122.266" stroke="#647B99" stroke-width="2" stroke-linejoin="round"/>
<path d="M102.151 146.231L92.0977 156.292L102.158 166.339L112.212 156.292L102.151 146.231Z" stroke="#647B99" stroke-width="2" stroke-linecap="round" stroke-linejoin="round"/>
<path d="M145.722 186.446H58.5942L45.1914 132.835H159.125L145.722 186.446Z" stroke="#647B99" stroke-width="2" stroke-linecap="round" stroke-linejoin="round"/>
<path d="M159.166 25.5436L143.733 35.4646V49.354L150.347 56.4089H152.552V60.8182H154.757V65.2275H163.575V60.8182H165.78V56.4089H167.985L174.599 49.354V35.4646L159.166 25.5436Z" fill="white"/>
<path d="M159.167 25.5436V56.4089H152.553V60.8182H165.781V56.4089H167.985L174.599 49.1335V35.4646L159.167 25.5436Z" fill="#E2EFFF"/>
<path d="M161.371 56.409V40.9764H169.087L167.985 47.5904H150.348L149.245 40.9764H156.962V56.409M159.166 16.7251V21.1344M183.418 40.9764H179.008M179.67 22.8982L175.701 26.6461M179.67 60.3774L175.701 56.409M134.915 40.9764H139.324M138.883 22.8982L142.631 26.6461M138.883 60.3774L142.631 56.409M159.166 67.4323V65.2276" stroke="#647B99" stroke-width="2" stroke-miterlimit="10" stroke-linecap="round" stroke-linejoin="round"/>
<path d="M165.78 56.4089V60.8182H152.552V56.4089M159.166 25.5436L174.599 35.4646V49.354L167.985 56.4089H150.347L143.733 49.354V35.4646L159.166 25.5436Z" stroke="#647B99" stroke-width="2" stroke-miterlimit="10" stroke-linecap="round" stroke-linejoin="round"/>
<path d="M163.575 60.8182V65.2275H154.757V60.8182" stroke="#647B99" stroke-width="2" stroke-miterlimit="10" stroke-linecap="round" stroke-linejoin="round"/>
<path d="M95.1465 78.05V80.6517" stroke="#647B99" stroke-width="2" stroke-linecap="round" stroke-linejoin="bevel"/>
<path d="M109.27 78.05V80.6517" stroke="#647B99" stroke-width="2" stroke-linecap="round" stroke-linejoin="bevel"/>
</svg>
