<svg width="21" height="20" viewBox="0 0 21 20" fill="none" xmlns="http://www.w3.org/2000/svg">
<g clip-path="url(#clip0_1192_4102)">
<path d="M2.50388 10.4259L1.39722 12.1309L6.93638 18.5225L15.8839 1.47754L5.65722 12.9825L2.50388 10.4259Z" fill="white"/>
<path d="M2.5896 13.5791L6.93543 18.5216L11.5371 9.65914L11.6229 9.14748L6.5096 15.5391L2.6746 13.4083L2.5896 13.5791ZM10.3446 15.965L12.4746 17.6691L20.1454 2.33081L13.3279 9.74498" fill="#BBD8FF"/>
<path d="M10.3447 15.965L12.4747 17.6692L20.1456 2.33087L13.3281 9.74504M2.50388 10.4259L1.39722 12.1309L6.93638 18.5225L15.8839 1.47754L5.65722 12.9825L2.50388 10.4259Z" stroke="#092F63" stroke-width="0.833333" stroke-miterlimit="10" stroke-linecap="round" stroke-linejoin="round"/>
<path d="M2.50388 10.4259L1.39722 12.1309L6.93638 18.5225L15.8839 1.47754L5.65722 12.9825L2.50388 10.4259Z" stroke="#092F63" stroke-width="0.833333" stroke-miterlimit="10" stroke-linecap="round" stroke-linejoin="round"/>
</g>
<defs>
<clipPath id="clip0_1192_4102">
<rect width="20" height="20" fill="white" transform="translate(0.770508)"/>
</clipPath>
</defs>
</svg>
