<svg width="301" height="300" viewBox="0 0 301 300" fill="none" xmlns="http://www.w3.org/2000/svg">
<path d="M164.983 120.087L137.932 133.612L110.882 120.087V84.0252L137.932 70.5L164.983 84.0252V120.087ZM183.013 178.693V156.166L137.932 142.632L92.8509 156.157V178.693H61.2861L79.3257 250.825H196.539L214.569 178.702L183.013 178.693Z" fill="white"/>
<path d="M137.923 196.724L124.398 210.258L137.932 223.774L151.457 210.258L137.923 196.724ZM74.8203 232.785L79.3258 250.825H196.539L201.044 232.794L74.8203 232.785ZM137.932 70.5L110.882 84.0252L133.427 97.5505H164.983V84.0252L137.932 70.5Z" fill="#BBD8FF"/>
<path d="M38.75 250.825H237.123M183.013 178.693V156.166L137.932 142.632L92.851 156.157V178.693M137.932 160.663V178.693" stroke="#092F63" stroke-width="4" stroke-linecap="round" stroke-linejoin="round"/>
<path d="M164.983 120.087L137.932 133.612L110.882 120.087V84.0252L137.932 70.5L164.983 84.0252V120.087Z" stroke="#092F63" stroke-width="4" stroke-linejoin="round"/>
<path d="M110.882 84.0254L133.427 97.5506H164.983" stroke="#092F63" stroke-width="4" stroke-linejoin="round"/>
<path d="M137.923 196.724L124.398 210.258L137.932 223.775L151.457 210.258L137.923 196.724Z" stroke="#092F63" stroke-width="4" stroke-linecap="round" stroke-linejoin="round"/>
<path d="M196.539 250.825H79.3256L61.2949 178.702H214.569L196.539 250.825Z" stroke="#092F63" stroke-width="4" stroke-linecap="round" stroke-linejoin="round"/>
<path d="M214.625 34.3638L193.863 47.7104V66.3956L202.761 75.8865H205.727V81.8183H208.693V87.7501H220.556V81.8183H223.522V75.8865H226.488L235.386 66.3956V47.7104L214.625 34.3638Z" fill="white"/>
<path d="M214.625 34.3638V75.8865H205.728V81.8183H223.523V75.8865H226.489L235.387 66.099V47.7104L214.625 34.3638Z" fill="#BBD8FF"/>
<path d="M217.591 75.8864V55.125H227.972L226.489 64.0227H202.761L201.278 55.125H211.659V75.8864M214.625 22.5V28.4318M247.25 55.125H241.318M242.208 30.8045L236.869 35.8466M242.208 81.225L236.869 75.8864M182 55.125H187.932M187.339 30.8045L192.381 35.8466M187.339 81.225L192.381 75.8864M214.625 90.7159V87.75" stroke="#092F63" stroke-width="4" stroke-miterlimit="10" stroke-linecap="round" stroke-linejoin="round"/>
<path d="M223.522 75.8865V81.8183H205.727V75.8865M214.625 34.3638L235.386 47.7104V66.3956L226.488 75.8865H202.761L193.863 66.3956V47.7104L214.625 34.3638Z" stroke="#092F63" stroke-width="4" stroke-miterlimit="10" stroke-linecap="round" stroke-linejoin="round"/>
<path d="M220.557 81.8184V87.7502H208.693V81.8184" stroke="#092F63" stroke-width="4" stroke-miterlimit="10" stroke-linecap="round" stroke-linejoin="round"/>
<path d="M128.5 105V108.5" stroke="#092F63" stroke-width="4" stroke-linecap="round" stroke-linejoin="bevel"/>
<path d="M147.5 105V108.5" stroke="#092F63" stroke-width="4" stroke-linecap="round" stroke-linejoin="bevel"/>
</svg>
