<svg width="20" height="20" viewBox="0 0 20 20" fill="none" xmlns="http://www.w3.org/2000/svg">
<path d="M19.3742 17.67H0.625V4.88579H11.7033L13.4075 2.32996H19.3733L19.3742 17.67Z" fill="white"/>
<path d="M19.3742 15.1133H0.625V16.3916H19.375L19.3742 15.1133Z" fill="#BBD8FF"/>
<path d="M15.1135 8.72168L4.88685 14.2608L10.0002 17.2442L15.1135 14.2608V8.72168ZM6.59185 3.18335H1.47852V4.88668H6.59185V3.18335Z" fill="#BBD8FF"/>
<path d="M6.59185 3.18335H1.47852V4.88668H6.59185V3.18335Z" stroke="#092F63" stroke-miterlimit="10" stroke-linecap="round" stroke-linejoin="round"/>
<path d="M3.18333 3.18329V4.88662M4.88667 3.18329V4.88662M19.3742 17.67H0.625V4.88579H11.7033L13.4075 2.32996H19.3733L19.3742 17.67Z" stroke="#092F63" stroke-miterlimit="10" stroke-linecap="round" stroke-linejoin="round"/>
<path d="M2.33008 11.7041H3.18174M17.6692 4.03491H14.2609V5.73908H17.6692V4.03491Z" stroke="#092F63" stroke-miterlimit="10" stroke-linecap="round" stroke-linejoin="round"/>
<path d="M0.625 15.1133H6.335M13.6633 15.1133H19.3733M0.625 9.14746H4.88583M15.1125 9.14746H19.3733" stroke="#092F63" stroke-miterlimit="10" stroke-linejoin="round"/>
<path d="M6.5918 11.7041V9.57493L8.7218 8.38159" stroke="#092F63" stroke-miterlimit="10" stroke-linecap="round" stroke-linejoin="round"/>
<path d="M15.1134 14.2608L10.0001 17.2441L4.88672 14.2608V8.72164L10.0001 5.73914L15.1134 8.72247V14.2608Z" stroke="#092F63" stroke-miterlimit="10" stroke-linecap="round" stroke-linejoin="round"/>
</svg>
