<svg width="20" height="20" viewBox="0 0 20 20" fill="none" xmlns="http://www.w3.org/2000/svg">
<path d="M13.75 9.58341V8.75008H10.5L10.8333 1.25008L8.74998 0.416748L7.49998 9.58341L6.24998 0.416748L4.16665 1.66675L4.60165 11.5251L3.74998 11.6667L3.35498 15.4167L4.16665 19.5834H12.0833V18.7501L14.5833 17.5001L15.4166 13.3334L16.25 12.9167V9.58341H13.75Z" fill="white"/>
<path d="M3.35498 15.4167L6.66665 17.0834L7.91665 16.2501H14.8333L14.5833 17.5001L12.0833 19.5834H4.16665L3.35498 15.4167Z" fill="#BBD8FF"/>
<path d="M6.66665 17.0834L7.91665 16.2501V13.7501L11.25 12.9167V10.4167L3.74998 11.6667L3.35498 15.4167L4.16665 19.5834M12.0833 19.5834V18.7501L14.5833 17.5001L15.4166 13.3334" stroke="#092F63" stroke-width="0.833333" stroke-linecap="round" stroke-linejoin="round"/>
<path d="M10.4167 10.5559L10.8334 1.25008L8.75008 0.416748L7.50008 9.58341L6.25008 0.416748L4.16675 1.66675L4.60175 11.5251M10.4167 13.1251V16.2501L13.7501 15.0001V8.75008H10.5059M13.7501 9.58341H16.2501V12.9167L13.7501 14.1667" stroke="#092F63" stroke-width="0.833333" stroke-linecap="round" stroke-linejoin="round"/>
</svg>
