<svg width="20" height="20" viewBox="0 0 20 20" fill="none" xmlns="http://www.w3.org/2000/svg">
<path d="M19.3742 2.32996H4.035V6.59162H2.33083V10.8525H0.625V17.6691H4.88583V15.965H9.14667V14.2608H19.375L19.3742 2.32996Z" fill="white"/>
<path d="M4.88779 10.8525V15.965H0.626953L4.88779 10.8525ZM4.88779 11.3633V14.2608H9.14862V6.59162L4.88779 11.3633ZM9.14862 8.55162V11.7041H19.3761V2.32996L9.14862 8.55162Z" fill="#D9D9D9"/>
<path d="M0.625 15.9649H4.88583M4.88583 10.8524H0.625V17.6691H4.88583V10.8524Z" stroke="#808080" stroke-miterlimit="10" stroke-linecap="round" stroke-linejoin="round"/>
<path d="M2.33008 9.14751V6.59167H9.14675V15.965H6.59091" stroke="#808080" stroke-miterlimit="10" stroke-linecap="round" stroke-linejoin="round"/>
<path d="M4.03516 4.88662V2.32996H19.3743V14.2608H10.8527M9.14766 14.2608H6.59182M19.3743 11.7041H10.8527M11.7043 14.2608V17.6691M8.29599 17.67H15.1127M14.6868 4.46079L17.2435 7.01746M16.8168 4.03496L17.6702 4.88662" stroke="#808080" stroke-miterlimit="10" stroke-linecap="round" stroke-linejoin="round"/>
</svg>
