<svg width="20" height="20" viewBox="0 0 20 20" fill="none" xmlns="http://www.w3.org/2000/svg">
<path d="M19.3742 2.33008H4.035V6.59174H2.33083V10.8526H0.625V17.6692H4.88583V15.9651H9.14667V14.2609H19.375L19.3742 2.33008Z" fill="white"/>
<path d="M4.88779 10.8526V15.9651H0.626953L4.88779 10.8526ZM4.88779 11.3634V14.2609H9.14862V6.59174L4.88779 11.3634ZM9.14862 8.55174V11.7042H19.3761V2.33008L9.14862 8.55174Z" fill="#BBD8FF"/>
<path d="M0.625 15.965H4.88583M4.88583 10.8525H0.625V17.6692H4.88583V10.8525Z" stroke="#092F63" stroke-miterlimit="10" stroke-linecap="round" stroke-linejoin="round"/>
<path d="M2.33008 9.14763V6.5918H9.14675V15.9651H6.59091" stroke="#092F63" stroke-miterlimit="10" stroke-linecap="round" stroke-linejoin="round"/>
<path d="M4.03516 4.88674V2.33008H19.3743V14.2609H10.8527M9.14766 14.2609H6.59182M19.3743 11.7042H10.8527M11.7043 14.2609V17.6692M8.29599 17.6701H15.1127M14.6868 4.46091L17.2435 7.01758M16.8168 4.03508L17.6702 4.88674" stroke="#092F63" stroke-miterlimit="10" stroke-linecap="round" stroke-linejoin="round"/>
</svg>
