<svg width="20" height="20" viewBox="0 0 20 20" fill="none" xmlns="http://www.w3.org/2000/svg">
<g clip-path="url(#clip0_738_483)">
<path d="M18.1809 1.81907L13.9201 0.625732L11.1076 3.52323L11.4492 4.88657L5.22755 12.3866L4.88672 15.1132L7.61422 14.7716L15.1134 8.55157L16.4767 8.8924L19.3742 6.0799L18.1809 1.81907Z" fill="white"/>
<path d="M18.1799 1.90405L16.8166 2.75655L17.6691 5.31322L15.5383 7.44322L13.3224 6.76155L15.1124 8.55155L16.4758 8.89239L19.3733 6.07989L18.1799 1.90405ZM7.61326 14.7724L15.1124 8.55155L13.3224 6.76155L6.41992 13.6641L7.61326 14.7724Z" fill="#BBD8FF"/>
<path d="M15.1124 8.55157L16.4757 8.8924L19.3732 6.0799L18.1799 1.81907L13.9191 0.625732L11.1066 3.52323L11.4482 4.88657M15.1124 8.55157L7.6124 14.7724L5.22656 12.3857L11.4474 4.88657L15.1124 8.55157ZM12.4707 2.1599L17.8391 7.52823" stroke="#092F63" stroke-miterlimit="10" stroke-linejoin="round"/>
<path d="M5.22755 12.3857L4.88672 15.1132L7.61422 14.7716" stroke="#092F63" stroke-miterlimit="10" stroke-linejoin="round"/>
<path d="M4.88667 15.1133L4.035 15.965V17.6691L1.47833 16.8175V18.5216L0.625 19.375M12.1308 7.86914L11.5342 8.46581" stroke="#092F63" stroke-miterlimit="10" stroke-linecap="round" stroke-linejoin="round"/>
</g>
<defs>
<clipPath id="clip0_738_483">
<rect width="20" height="20" fill="white"/>
</clipPath>
</defs>
</svg>
