<svg width="223" height="223" viewBox="0 0 223 223" fill="none" xmlns="http://www.w3.org/2000/svg">
<path d="M101.917 69.3562V46.5634L82.3807 36.795L62.8439 46.5634V69.3562L82.3807 79.1246L101.917 69.3562ZM118.198 98.6613L82.3807 85.6368L46.5633 98.6613L36.7949 140.991L56.3317 124.71V186.577L82.3807 147.503L108.43 186.577V124.71L127.966 140.991L118.198 98.6613ZM186.577 91.7453L134.479 75.4647V62.4402L186.577 42.9035V91.7453Z" fill="white"/>
<path d="M108.43 134.479H56.332V147.503H108.43V134.479ZM134.479 62.4402L121.455 55.928V81.977L134.479 75.4647M134.479 69.3562V75.4647L186.577 91.7453V69.3562H134.479ZM101.918 56.3317H75.8688L62.8443 46.5634L82.381 36.795L101.918 46.5634V56.3317Z" fill="#E2EFFF"/>
<path d="M134.479 62.4402L121.454 55.9279V81.9769L134.479 75.4647M134.479 62.4402V75.4647M134.479 62.4402L186.577 42.9034V91.7453L134.479 75.4647" stroke="#647B99" stroke-width="2" stroke-linecap="round" stroke-linejoin="round"/>
<path d="M140.991 77.4965V90.521L167.04 98.6613V85.6368M82.3807 101.917V121.454M108.43 124.71L127.966 140.991L118.198 98.6613L82.3807 85.6368L46.5633 98.6613L36.7949 140.991L56.3317 124.71M101.917 69.3562L82.3807 79.1246L62.8439 69.3562V46.5634L82.3807 36.795L101.917 46.5634V69.3562Z" stroke="#647B99" stroke-width="2" stroke-linecap="round" stroke-linejoin="round"/>
<path d="M108.43 114.942V186.577L82.381 147.503L56.332 186.577V114.942M62.8443 46.5634L75.8688 56.3317H101.918M56.332 134.479H108.43" stroke="#647B99" stroke-width="2" stroke-linecap="round" stroke-linejoin="round"/>
<path d="M75.8203 62.44V65.0417" stroke="#647B99" stroke-width="2" stroke-linecap="round" stroke-linejoin="bevel"/>
<path d="M89.2002 62.44V65.0417" stroke="#647B99" stroke-width="2" stroke-linecap="round" stroke-linejoin="bevel"/>
</svg>
