<svg width="301" height="300" viewBox="0 0 301 300" fill="none" xmlns="http://www.w3.org/2000/svg">
<path d="M137.609 93.3044V62.6413L111.326 49.5L85.0435 62.6413V93.3044L111.326 106.446L137.609 93.3044ZM159.511 132.728L111.326 115.207L63.1413 132.728L50 189.674L76.2826 167.772V251L111.326 198.435L146.37 251V167.772L172.652 189.674L159.511 132.728ZM251.5 123.424L181.413 101.522V84.0003L251.5 57.7177V123.424Z" fill="white"/>
<path d="M146.37 180.913H76.2826V198.435H146.37V180.913ZM181.413 84.0003L163.891 75.2394V110.283L181.413 101.522M181.413 93.3044V101.522L251.5 123.424V93.3044H181.413ZM137.609 75.7826H102.565L85.0435 62.6413L111.326 49.5L137.609 62.6413V75.7826Z" fill="#BBD8FF"/>
<path d="M181.413 84.0004L163.891 75.2395V110.283L181.413 101.522M181.413 84.0004V101.522M181.413 84.0004L251.5 57.7178V123.424L181.413 101.522" stroke="#092F63" stroke-width="4" stroke-linecap="round" stroke-linejoin="round"/>
<path d="M190.174 104.255V121.777L225.217 132.728V115.207M111.326 137.109V163.391M146.37 167.772L172.652 189.674L159.511 132.728L111.326 115.207L63.1413 132.728L50 189.674L76.2826 167.772M137.609 93.3044L111.326 106.446L85.0435 93.3044V62.6413L111.326 49.5L137.609 62.6413V93.3044Z" stroke="#092F63" stroke-width="4" stroke-linecap="round" stroke-linejoin="round"/>
<path d="M146.37 154.63V251L111.326 198.435L76.2826 251V154.63M85.0435 62.6411L102.565 75.7824H137.609M76.2826 180.913H146.37" stroke="#092F63" stroke-width="4" stroke-linecap="round" stroke-linejoin="round"/>
<path d="M102.5 84V87.5" stroke="#092F63" stroke-width="4" stroke-linecap="round" stroke-linejoin="bevel"/>
<path d="M120.5 84V87.5" stroke="#092F63" stroke-width="4" stroke-linecap="round" stroke-linejoin="bevel"/>
</svg>
