<svg width="67" height="24" viewBox="0 0 67 24" fill="none" xmlns="http://www.w3.org/2000/svg">
<rect width="67" height="24" rx="12" fill="#A7A7A7"/>
<path d="M35.4374 7.088H36.4334V15.044H35.4374V7.088ZM29.4614 16.88H36.7694V17.696H29.4614V16.88ZM29.4614 14.312H30.4574V17.264H29.4614V14.312ZM30.3614 7.688H31.1894V8.78C31.1894 9.492 31.0654 10.16 30.8174 10.784C30.5694 11.4 30.2174 11.944 29.7614 12.416C29.3134 12.88 28.7854 13.236 28.1774 13.484L27.6494 12.692C28.2014 12.476 28.6774 12.168 29.0774 11.768C29.4854 11.368 29.8014 10.912 30.0254 10.4C30.2494 9.88 30.3614 9.34 30.3614 8.78V7.688ZM30.5414 7.688H31.3694V8.78C31.3694 9.188 31.4334 9.584 31.5614 9.968C31.6894 10.344 31.8734 10.696 32.1134 11.024C32.3534 11.352 32.6374 11.644 32.9654 11.9C33.3014 12.148 33.6694 12.344 34.0694 12.488L33.5534 13.28C32.9534 13.048 32.4254 12.712 31.9694 12.272C31.5214 11.824 31.1694 11.304 30.9134 10.712C30.6654 10.112 30.5414 9.468 30.5414 8.78V7.688ZM41.2925 8.936H42.0965V9.392C42.0965 10.024 41.9725 10.612 41.7245 11.156C41.4765 11.692 41.1245 12.164 40.6685 12.572C40.2205 12.972 39.6925 13.276 39.0845 13.484L38.6045 12.704C39.1405 12.528 39.6085 12.276 40.0085 11.948C40.4085 11.612 40.7205 11.224 40.9445 10.784C41.1765 10.344 41.2925 9.88 41.2925 9.392V8.936ZM41.4605 8.936H42.2765V9.392C42.2765 9.728 42.3405 10.052 42.4685 10.364C42.6045 10.676 42.7925 10.968 43.0325 11.24C43.2725 11.504 43.5605 11.736 43.8965 11.936C44.2325 12.136 44.6005 12.296 45.0005 12.416L44.5325 13.196C43.9245 13.012 43.3885 12.736 42.9245 12.368C42.4685 11.992 42.1085 11.552 41.8445 11.048C41.5885 10.536 41.4605 9.984 41.4605 9.392V8.936ZM38.8805 8.384H44.6765V9.188H38.8805V8.384ZM41.2925 7.028H42.2885V8.672H41.2925V7.028ZM44.3405 10.172H46.7885V10.988H44.3405V10.172ZM46.5125 7.076H47.5085V13.652H46.5125V7.076ZM43.9325 13.94C45.0605 13.94 45.9445 14.116 46.5845 14.468C47.2245 14.812 47.5445 15.296 47.5445 15.92C47.5445 16.544 47.2245 17.032 46.5845 17.384C45.9445 17.736 45.0605 17.912 43.9325 17.912C42.8125 17.912 41.9285 17.736 41.2805 17.384C40.6405 17.032 40.3205 16.544 40.3205 15.92C40.3205 15.296 40.6405 14.812 41.2805 14.468C41.9285 14.116 42.8125 13.94 43.9325 13.94ZM43.9325 14.72C43.3885 14.72 42.9205 14.768 42.5285 14.864C42.1365 14.952 41.8325 15.088 41.6165 15.272C41.4085 15.448 41.3045 15.664 41.3045 15.92C41.3045 16.176 41.4085 16.396 41.6165 16.58C41.8325 16.756 42.1365 16.892 42.5285 16.988C42.9205 17.084 43.3885 17.132 43.9325 17.132C44.4845 17.132 44.9525 17.084 45.3365 16.988C45.7285 16.892 46.0285 16.756 46.2365 16.58C46.4525 16.396 46.5605 16.176 46.5605 15.92C46.5605 15.664 46.4525 15.448 46.2365 15.272C46.0285 15.088 45.7285 14.952 45.3365 14.864C44.9525 14.768 44.4845 14.72 43.9325 14.72ZM54.0235 12.5H55.0075V14.396H54.0235V12.5ZM49.6195 12.152H59.4235V12.968H49.6195V12.152ZM54.5155 14.096C55.6755 14.096 56.5835 14.26 57.2395 14.588C57.8955 14.916 58.2235 15.388 58.2235 16.004C58.2235 16.612 57.8955 17.08 57.2395 17.408C56.5835 17.744 55.6755 17.912 54.5155 17.912C53.3555 17.912 52.4435 17.744 51.7795 17.408C51.1235 17.08 50.7955 16.612 50.7955 16.004C50.7955 15.388 51.1235 14.916 51.7795 14.588C52.4435 14.26 53.3555 14.096 54.5155 14.096ZM54.5155 14.876C53.9475 14.876 53.4595 14.92 53.0515 15.008C52.6515 15.096 52.3435 15.224 52.1275 15.392C51.9115 15.56 51.8035 15.764 51.8035 16.004C51.8035 16.244 51.9115 16.448 52.1275 16.616C52.3435 16.784 52.6515 16.912 53.0515 17C53.4595 17.096 53.9475 17.144 54.5155 17.144C55.0835 17.144 55.5675 17.096 55.9675 17C56.3755 16.912 56.6875 16.784 56.9035 16.616C57.1195 16.448 57.2275 16.244 57.2275 16.004C57.2275 15.764 57.1195 15.56 56.9035 15.392C56.6875 15.224 56.3755 15.096 55.9675 15.008C55.5675 14.92 55.0835 14.876 54.5155 14.876ZM53.8795 7.976H54.7555V8.3C54.7555 8.652 54.6795 8.976 54.5275 9.272C54.3835 9.568 54.1795 9.844 53.9155 10.1C53.6515 10.348 53.3395 10.568 52.9795 10.76C52.6275 10.952 52.2435 11.112 51.8275 11.24C51.4115 11.36 50.9755 11.448 50.5195 11.504L50.1595 10.712C50.5515 10.672 50.9275 10.604 51.2875 10.508C51.6555 10.404 51.9955 10.28 52.3075 10.136C52.6275 9.984 52.9035 9.812 53.1355 9.62C53.3675 9.428 53.5475 9.22 53.6755 8.996C53.8115 8.772 53.8795 8.54 53.8795 8.3V7.976ZM54.2875 7.976H55.1635V8.3C55.1635 8.548 55.2275 8.784 55.3555 9.008C55.4915 9.224 55.6755 9.428 55.9075 9.62C56.1395 9.804 56.4115 9.972 56.7235 10.124C57.0435 10.268 57.3835 10.392 57.7435 10.496C58.1115 10.6 58.4915 10.672 58.8835 10.712L58.5235 11.504C58.0675 11.448 57.6315 11.36 57.2155 11.24C56.7995 11.112 56.4115 10.952 56.0515 10.76C55.6995 10.568 55.3915 10.348 55.1275 10.1C54.8635 9.852 54.6555 9.576 54.5035 9.272C54.3595 8.968 54.2875 8.644 54.2875 8.3V7.976ZM50.5195 7.58H58.5355V8.384H50.5195V7.58Z" fill="white"/>
<path d="M11.5619 15.9077L17.9579 9.51171L17.2499 8.80371L11.5619 14.4917L8.71191 11.6417L8.00391 12.3497L11.5619 15.9077Z" fill="white"/>
<path d="M13 20C17.4183 20 21 16.4183 21 12C21 7.58172 17.4183 4 13 4" stroke="white" stroke-dasharray="2 2"/>
<path d="M13 20C8.58172 20 5 16.4183 5 12C5 7.58172 8.58172 4 13 4" stroke="white" stroke-dasharray="2 2"/>
</svg>
