<svg width="41" height="42" viewBox="0 0 41 42" fill="none" xmlns="http://www.w3.org/2000/svg">
<path d="M29.9425 23.453H30.7602L32.3954 21.0001L31.5778 18.5473L33.213 16.0944L31.5778 13.6415L33.213 11.1887L31.5778 8.7358H28.3073L31.5778 2.19482H20.1311L21.6028 5.13826L17.6782 7.10056L15.2253 12.0063L9.50199 13.6415V12.0063H4.59625V23.453H9.50199V21.8178L20.9487 23.453L16.043 28.3587V36.535L25.8544 39.8055L35.6659 36.535V28.3587L29.9425 23.453Z" fill="white"/>
<path d="M16.043 33.2628V36.535L25.8544 39.8055L35.6659 36.535V33.2628L25.8544 36.5333L16.043 33.2628ZM9.50199 14.4592H4.59625V23.453H9.50199V14.4592ZM22.1751 6.28296L23.4016 8.73583H28.3073L29.5337 6.28296H22.1751Z" fill="#BBD8FF"/>
<path d="M27.4897 28.3587H24.2192L23.4016 29.994L24.2192 31.6292H27.4897L28.3073 33.2645L27.4897 34.8997H24.2192M25.8545 28.3587V26.7235M25.8545 36.535V34.8997M30.7602 23.453H20.9487L9.50201 21.8177" stroke="#092F63" stroke-linecap="round" stroke-linejoin="round"/>
<path d="M23.4016 8.73578H31.5778L33.213 11.1887L31.5778 13.6415L33.213 16.0944L31.5778 18.5473L32.3954 21.0001L30.7602 23.453M9.50199 13.6415L15.2253 12.0063L17.6782 7.10054L21.6028 5.13824M9.50199 12.0063H4.59625V23.453H9.50199V12.0063Z" stroke="#092F63" stroke-linecap="round" stroke-linejoin="round"/>
<path d="M29.9425 23.453L35.6659 28.3587V36.535L25.8544 39.8054L16.043 36.535V28.3587L20.9487 23.453" stroke="#092F63" stroke-linejoin="round"/>
<path d="M20.1311 2.19482L23.4016 8.7358H28.3073L31.5778 2.19482H20.1311Z" stroke="#092F63" stroke-linecap="round" stroke-linejoin="round"/>
</svg>
