<svg width="32" height="32" viewBox="0 0 32 32" fill="none" xmlns="http://www.w3.org/2000/svg">
<circle cx="16" cy="16" r="15.5" fill="#5290FF" stroke="#092F63" stroke-linecap="round"/>
<g clip-path="url(#clip0_2080_6038)">
<path d="M7.87217 26.3552L12.7722 23.6818H19.0088L23.9088 21.0093L23.463 19.6727L19.0088 20.5643L13.2172 20.1185L14.9997 17.891L14.5547 16.5543L10.0997 19.2277L7.87217 21.9002L5.64551 22.7918L7.87217 26.3552ZM24.3547 7.646H8.31801V16.5543H24.3547V7.646Z" fill="white"/>
<path d="M24.355 10.7633V7.64575H21.2367L24.355 10.7633ZM21.2367 16.5549H24.3542V13.4366L21.2367 16.5549ZM8.31836 13.4366V16.5549H11.4367L8.31836 13.4366ZM8.31836 10.7633V7.64575H11.4367L8.31836 10.7633Z" fill="#BBD8FF"/>
<path d="M8.31836 10.7634L11.4367 7.64585M8.31836 13.4367L11.4367 16.555H8.31836V7.64502H24.355V16.5534H17.2275M24.355 10.7634L21.2367 7.64585M24.355 13.4367L21.2367 16.555" stroke="#092F63" stroke-linecap="round" stroke-linejoin="round"/>
<path d="M17.2272 10.3184H15.4455L14.9997 11.2084L15.4455 12.0993H17.2272L17.6722 12.9909L17.2272 13.8809H15.4455M16.3363 10.3184V9.42676M16.3363 14.7726V13.8818M7.87217 26.3551L12.7722 23.6818H19.0088L23.9088 21.0093L23.463 19.6726L19.0088 20.5643L13.2172 20.1184L14.9997 17.8909L14.5547 16.5543L10.0997 19.2276L7.87217 21.9001L5.64551 22.7918" stroke="#092F63" stroke-linecap="round" stroke-linejoin="round"/>
</g>
<defs>
<clipPath id="clip0_2080_6038">
<rect width="20" height="20" fill="white" transform="translate(5 7)"/>
</clipPath>
</defs>
</svg>
