<svg width="270" height="294" viewBox="0 0 270 294" fill="none" xmlns="http://www.w3.org/2000/svg">
<path d="M266.25 218.875L135 290.75L3.75 218.875V75.125L135 3.25L266.25 75.125V218.875Z" fill="white"/>
<path d="M78.75 109.5V153.25L116.25 115.75L103.75 84.5L78.75 109.5ZM191.25 109.5V153.25L228.75 115.75L216.25 84.5L191.25 109.5ZM235 203.25L135 259.5L35 203.25L3.75 218.875L135 290.75L266.25 218.875L235 203.25Z" fill="#BBD8FF"/>
<path d="M266.25 218.875L135 290.75L3.75 218.875V75.125L135 3.25L266.25 75.125V218.875Z" stroke="#092F63" stroke-width="6" stroke-linecap="round" stroke-linejoin="round"/>
<path d="M222.5 193.337L135 243.338L47.5001 193.337M56.3376 184.5L38.6626 202.175M213.663 184.5L231.338 202.175" stroke="#092F63" stroke-width="6" stroke-linecap="round" stroke-linejoin="round"/>
<path d="M78.75 153.25L116.25 115.75L103.75 84.5L78.75 109.5L53.75 84.5L41.25 115.75L78.75 153.25ZM191.25 153.25L228.75 115.75L216.25 84.5L191.25 109.5L166.25 84.5L153.75 115.75L191.25 153.25Z" stroke="#092F63" stroke-width="6" stroke-linejoin="round"/>
</svg>
