<svg width="41" height="42" viewBox="0 0 41 42" fill="none" xmlns="http://www.w3.org/2000/svg">
<g clip-path="url(#clip0_814_1841)">
<path d="M33.7804 21V35.3117L20.1311 38.0649L6.48183 35.3117V21M23.5434 10.7614L26.9558 15.8807H32.9294L38.9014 9.90871L32.9277 3.93506H7.33282L1.36084 9.91038L7.33449 15.884H13.3065L16.7188 10.763L23.5434 10.7614Z" fill="white"/>
<path d="M7.33284 15.8807H13.3065L16.7188 10.7614H23.5435L26.9558 15.8807H32.9294L38.9014 9.90869H1.35919L7.33284 15.8807Z" fill="#BBD8FF"/>
<path d="M13.3065 21H15.0118M19.2785 21H20.9838M25.2504 21H26.9558M13.3065 26.1193H15.0118M19.2785 26.1193H20.9838M25.2504 26.1193H26.9558M13.3065 31.2386H15.0118M19.2785 31.2386H20.9838M25.2504 31.2386H26.9558M33.7804 21V35.3117L20.1311 38.0649L6.48183 35.3117V21M23.5434 10.7614L26.9558 15.8807H32.9294L38.9014 9.90871L32.9277 3.93506H7.33282L1.36084 9.91038L7.33449 15.884H13.3065L16.7188 10.763L23.5434 10.7614Z" stroke="#092F63" stroke-linecap="round" stroke-linejoin="round"/>
</g>
<defs>
<clipPath id="clip0_814_1841">
<rect width="40.0468" height="40.0468" fill="white" transform="translate(0.107727 0.976624)"/>
</clipPath>
</defs>
</svg>
