<svg width="30" height="30" viewBox="0 0 30 30" fill="none" xmlns="http://www.w3.org/2000/svg">
<path d="M15 15.8849L8.44254 22.4424C8.32588 22.5591 8.18254 22.6216 8.01254 22.6299C7.84254 22.6383 7.69088 22.5758 7.55754 22.4424C7.42421 22.3091 7.35754 22.1616 7.35754 21.9999C7.35754 21.8383 7.42421 21.6908 7.55754 21.5574L14.115 14.9999L7.55754 8.44242C7.44088 8.32576 7.37838 8.18242 7.37004 8.01242C7.36171 7.84242 7.42421 7.69076 7.55754 7.55742C7.69088 7.42409 7.83838 7.35742 8.00004 7.35742C8.16171 7.35742 8.30921 7.42409 8.44254 7.55742L15 14.1149L21.5575 7.55742C21.6742 7.44076 21.818 7.37825 21.9888 7.36992C22.158 7.36159 22.3092 7.42409 22.4425 7.55742C22.5759 7.69076 22.6425 7.83826 22.6425 7.99992C22.6425 8.16159 22.5759 8.30909 22.4425 8.44242L15.885 14.9999L22.4425 21.5574C22.5592 21.6741 22.6217 21.8178 22.63 21.9887C22.6384 22.1578 22.5759 22.3091 22.4425 22.4424C22.3092 22.5758 22.1617 22.6424 22 22.6424C21.8384 22.6424 21.6909 22.5758 21.5575 22.4424L15 15.8849Z" fill="black"/>
</svg>
