<svg width="100" height="100" viewBox="0 0 100 100" fill="none" xmlns="http://www.w3.org/2000/svg">
<path d="M68.375 72.4584H33.6667L5.08337 50.0001L31.625 27.5417H68.375L94.9167 50.0001L68.375 72.4584Z" fill="white"/>
<path d="M50 27.5417L29.5834 43.8751V56.1251L50 72.4584L70.4167 56.1251V43.8751L50 27.5417ZM50 58.1667L41.8334 50.0001L50 41.8334L58.1667 50.0001L50 58.1667Z" fill="#91C0FF"/>
<path d="M50 15.2917V3.04175M72.4584 17.3334L82.6667 7.12508M27.5417 17.3334L17.3334 7.12508M50 84.7084V96.9584M72.4584 82.6667L82.6667 92.8751M27.5417 82.6667L17.3334 92.8751M68.375 72.4584H33.6667L5.08337 50.0001L31.625 27.5417H68.375L94.9167 50.0001L68.375 72.4584Z" stroke="#092F63" stroke-width="2" stroke-miterlimit="10" stroke-linecap="round" stroke-linejoin="round"/>
<path d="M29.5834 56.1251V43.8751L50 27.5417L70.4167 43.8751V56.1251L50 72.4584L29.5834 56.1251Z" stroke="#092F63" stroke-width="2" stroke-miterlimit="10" stroke-linecap="round" stroke-linejoin="round"/>
<path d="M58.0834 50.0001L50.0001 41.9167L41.9167 50.0001L50.0001 58.0834L58.0834 50.0001Z" stroke="#092F63" stroke-width="2" stroke-miterlimit="10" stroke-linecap="round" stroke-linejoin="round"/>
</svg>
