<svg width="40" height="40" viewBox="0 0 40 40" fill="none" xmlns="http://www.w3.org/2000/svg">
<g clip-path="url(#clip0_951_4775)">
<path d="M7.77333 11.0334L1.25 18.295H10.1917L11.0317 30.595L30.595 38.7484L15.925 15.02L7.77333 11.0334ZM31.4033 1.25171L15.925 15.0184L24.8017 29.3734L31.4033 1.25171Z" fill="white"/>
<path d="M15.925 15.02L13.48 13.8234L10.5317 23.2734L11.0333 30.5967L15.925 15.02ZM7.77333 11.0334L10.1933 18.295H1.25L7.77333 11.0334ZM25.6283 30.7134L38.7483 5.32837L29.445 9.58837L24.8017 29.3734L25.6283 30.7134Z" fill="#BBD8FF"/>
<path d="M15.925 15.0201L7.77333 11.0334L1.25 18.2951H10.1917L11.0317 30.5951L30.595 38.7484L15.925 15.0201ZM15.925 15.0201L31.4033 1.25342L24.8017 29.3734" stroke="#092F63" stroke-width="0.83" stroke-miterlimit="10" stroke-linejoin="round"/>
<path d="M29.4451 9.58837L38.7484 5.32837L25.6284 30.7134M7.77344 11.0334L10.1934 18.295M11.0351 30.5934L15.9251 15.02" stroke="#092F63" stroke-width="0.83" stroke-miterlimit="10" stroke-linejoin="round"/>
</g>
<defs>
<clipPath id="clip0_951_4775">
<rect width="40" height="40" fill="white"/>
</clipPath>
</defs>
</svg>
