<svg width="20" height="20" viewBox="0 0 20 20" fill="none" xmlns="http://www.w3.org/2000/svg">
<path d="M18.5216 14.6867L9.99994 19.375L1.47827 14.6867V5.31333L9.99994 0.625L18.5216 5.3125V14.6867Z" fill="white"/>
<path d="M18.5216 5.31348V14.6868L9.99994 19.3751L1.47827 14.6868L18.5216 5.31348Z" fill="#BBD8FF"/>
<path d="M10 16.8168V15.1135M5.31335 5.31349L6.59168 6.59182M14.6867 5.31349L13.4092 6.59182M5.31335 14.6868L6.59168 13.4085M14.6867 14.6868L13.4092 13.4085M3.18335 10.0002H4.88668M16.8167 10.0002H15.1133M10 4.03516V10.0002H13.4083" stroke="#092F63" stroke-width="0.833333" stroke-miterlimit="10" stroke-linecap="round" stroke-linejoin="round"/>
<path d="M18.5216 14.6867L9.99994 19.375L1.47827 14.6867V5.31333L9.99994 0.625L18.5216 5.3125V14.6867Z" stroke="#092F63" stroke-width="0.833333" stroke-miterlimit="10" stroke-linecap="round" stroke-linejoin="round"/>
</svg>
