<svg width="24" height="24" viewBox="0 0 24 24" fill="none" xmlns="http://www.w3.org/2000/svg">
<path d="M16.6021 3.82L18.1361 0.75H5.86407L7.39807 3.82L3.82007 10.977L10.9781 23.249H13.0241L20.1821 10.977L16.6021 3.82Z" fill="white"/>
<path d="M16.602 3.82L18.136 0.75H12V9.443L13.534 10.976L12 12.511V23.25H13.023L20.181 10.978L16.602 3.82Z" fill="#F5F6F8"/>
<path d="M16.6021 3.82H7.39807L5.86407 0.75H18.1361L16.6021 3.82ZM20.1801 10.977L13.0241 23.25H10.9781L3.82007 10.977L7.40007 3.82H16.6031L20.1801 10.977Z" stroke="#A7A7A7" stroke-width="0.833333" stroke-miterlimit="10" stroke-linecap="round" stroke-linejoin="round"/>
<path d="M12 23.249V12.51" stroke="#A7A7A7" stroke-width="0.833333" stroke-miterlimit="10" stroke-linecap="round" stroke-linejoin="round"/>
<path d="M13.5341 10.9761L12.0001 9.44312L10.4661 10.9761L12.0001 12.5101L13.5341 10.9761Z" stroke="#A7A7A7" stroke-width="0.833333" stroke-miterlimit="10" stroke-linecap="round" stroke-linejoin="round"/>
</svg>
