<svg width="40" height="40" viewBox="0 0 40 40" fill="none" xmlns="http://www.w3.org/2000/svg">
<path d="M23.0616 25.3482L22.8766 26.4149L20.0849 26.8982L19.6049 29.6882L16.8132 30.1682L10.3582 23.7149L6.11655 22.8982V25.3482H1.21655V10.6482H6.11655V13.0982L10.1999 12.2815L16.1099 9.83154L19.2066 12.9282L21.8482 10.6482H24.8999L29.7999 13.0982L33.8832 13.9149V12.2815H38.7832V26.9815H33.8832V24.5315L30.6166 25.3482H23.0616Z" fill="white"/>
<path d="M38.7832 14.7315H33.8832V26.9815H38.7832V14.7315ZM6.11655 13.0981H1.21655V25.3481H6.11655V13.0981Z" fill="#BBD8FF"/>
<path d="M24.0832 15.5484L16.6249 17.9984L15.0999 16.4734L21.8499 10.6484H24.8999L29.7999 13.0984L33.8832 13.9151V24.5318L30.6165 25.3484H23.0599" stroke="#092F63" stroke-width="0.833333" stroke-linecap="round" stroke-linejoin="round"/>
<path d="M6.11655 22.898L10.3582 23.7147L16.8132 30.168L19.6049 29.688L20.0849 26.8963L22.8766 26.413L23.3582 23.623L26.1482 23.143L26.6299 20.3513L22.3849 16.1063M19.2066 12.928L16.1099 9.83301L10.1999 12.2813L6.11655 13.098M6.11655 10.648H1.21655V25.348H6.11655V10.648ZM38.7832 12.2813H33.8832V26.9813H38.7832V12.2813Z" stroke="#092F63" stroke-width="0.833333" stroke-linejoin="round"/>
</svg>
