<svg width="20" height="20" viewBox="0 0 20 20" fill="none" xmlns="http://www.w3.org/2000/svg">
<g clip-path="url(#clip0_1647_2962)">
<path d="M11.2501 6.87484L7.50008 8.33317L3.75008 6.87484V1.87484L7.50008 0.416504L11.2501 1.87484V6.87484ZM17.8159 11.2498L14.1909 14.8748L13.1601 11.2698L12.9167 10.4165L7.50008 9.1665L2.08341 10.4165L0.416748 16.2498H12.8159L11.7592 17.3065L11.2501 19.5832L13.5267 19.074L19.5834 13.0182L17.8159 11.2498Z" fill="white"/>
<path d="M4.6875 1.51067L7.5 2.9165H11.25V1.87484L7.5 0.416504L4.6875 1.51067ZM18.7075 12.1423L11.2717 19.5782L13.5267 19.074L19.5833 13.0182L18.7075 12.1423Z" fill="#BBD8FF"/>
<path d="M6.25008 4.99984V4.58317M8.75008 4.99984V4.58317M13.4059 12.1273L12.9167 10.4165L7.50008 9.1665L2.08341 10.4165L0.416748 16.2498H10.8334M11.2501 6.87484L7.50008 8.33317L3.75008 6.87484V1.87484L7.50008 0.416504L11.2501 1.87484V6.87484Z" stroke="#092F63" stroke-width="0.833333" stroke-linecap="round" stroke-linejoin="round"/>
<path d="M4.6875 1.51067L7.5 2.9165H11.25V1.87484L7.5 0.416504L4.6875 1.51067ZM9.54417 9.63817L7.5 12.9165L5.45583 9.63817L7.5 9.1665L9.54417 9.63817ZM11.7592 17.3065L17.8158 11.2498L19.5833 13.0182L13.5267 19.074L11.25 19.5832L11.7592 17.3065Z" stroke="#092F63" stroke-width="0.833333" stroke-linecap="round" stroke-linejoin="round"/>
</g>
<defs>
<clipPath id="clip0_1647_2962">
<rect width="20" height="20" fill="white"/>
</clipPath>
</defs>
</svg>
