<svg width="40" height="40" viewBox="0 0 40 40" fill="none" xmlns="http://www.w3.org/2000/svg">
<path d="M38.7833 28.9834H9.38334L1.21667 37.1501V2.8501H38.7833V28.9834Z" fill="white"/>
<path d="M7.75001 25.7166L1.21667 32.25V37.15L9.38334 28.9833H38.7833V25.7166H7.75001ZM19.1833 9.3833V15.9166H12.65L19.1833 9.3833ZM30.6167 9.3833V15.9166H24.0833L30.6167 9.3833Z" fill="#BBD8FF"/>
<path d="M38.7833 28.9834H9.38334L1.21667 37.1501V2.8501H38.7833V28.9834Z" stroke="#092F63" stroke-width="1.66667" stroke-linecap="round" stroke-linejoin="round"/>
<path d="M19.1834 15.9166V19.1833L14.2834 22.45M19.1834 15.9166H12.65V9.3833H19.1834V15.9166ZM30.6167 15.9166V19.1833L25.7167 22.45M30.6167 15.9166H24.0834V9.3833H30.6167V15.9166Z" stroke="#092F63" stroke-width="1.66667" stroke-linecap="round" stroke-linejoin="round"/>
</svg>
