<svg width="40" height="40" viewBox="0 0 40 40" fill="none" xmlns="http://www.w3.org/2000/svg">
<path d="M38.7483 8.92139H1.25V16.5914L2.955 17.0914V36.1914H37.0417V17.0914L38.7467 16.5914L38.7483 8.92139Z" fill="white"/>
<path d="M38.7483 12.3296H1.25V16.5913L2.955 17.0913V20.5013L16.5883 24.5113H16.84L16.59 24.2613V17.4446H23.4067V24.2613L23.1567 24.5113H23.4067L37.0417 20.5013V17.0913L38.7467 16.5913L38.7483 12.3296Z" fill="#BBD8FF"/>
<path d="M20 22.5564V20.8498M2.95667 17.0914V36.1914H37.0433V17.0914M27.67 8.92144H12.33L14.035 3.80811H25.965L27.67 8.92144Z" stroke="#092F63" stroke-width="1.66667" stroke-linecap="round" stroke-linejoin="round"/>
<path d="M23.4083 24.2615L20 27.6698L16.5917 24.2615V17.4448H23.4083V24.2615Z" stroke="#092F63" stroke-width="1.66667" stroke-linecap="round" stroke-linejoin="round"/>
<path d="M23.4083 21.1031L38.7483 16.5914V8.92139H1.25V16.5914L16.59 21.1031" stroke="#092F63" stroke-width="1.66667" stroke-linecap="round" stroke-linejoin="round"/>
</svg>
