<svg width="40" height="40" viewBox="0 0 40 40" fill="none" xmlns="http://www.w3.org/2000/svg">
<path d="M37.9667 20.8168V16.7335L33.0667 15.1001L28.1667 16.7335V20.8168H37.9667ZM36.3333 11.8335L33.0667 13.4668L29.8 11.8335V7.75013L33.0667 6.1168L36.3333 7.75013V11.8335ZM24.9 15.9168V11.8335L20 10.2001L15.1 11.8335V15.9168H24.9ZM23.2667 6.93346L20 8.5668L16.7333 6.93346V2.85013L20 1.2168L23.2667 2.85013V6.93346ZM16.7333 28.9835V20.8168L19.1833 19.1835L21.6333 20.8168V29.8001L24.9 28.1668L27.35 29.8001L29.8 28.1668L33.0667 30.6168V38.7835H14.2833L11.8333 34.7001L14.2833 28.9835H16.7333ZM11.8333 20.8168V16.7335L6.93332 15.1001L2.03333 16.7335V20.8168H11.8333ZM10.2 11.8335L6.93332 13.4668L3.66666 11.8335V7.75013L6.93332 6.1168L10.2 7.75013V11.8335Z" fill="white"/>
<path d="M33.0667 20.8168H37.9667V16.7335L33.0667 15.1001V20.8168ZM33.0667 6.1168L36.3333 7.75013V11.8335L33.0667 13.4668V6.1168ZM20 15.9168H24.9V11.8335L20 10.2001V15.9168ZM20 1.2168L23.2667 2.85013V6.93346L20 8.5668V1.2168ZM6.93335 20.8168H11.8333V16.7335L6.93335 15.1001V20.8168ZM6.93335 6.1168L10.2 7.75013V11.8335L6.93335 13.4668V6.1168Z" fill="#BBD8FF"/>
<path d="M13.4667 6.1168H11.8333M13.4667 2.85013L11.9967 2.1968M26.5333 6.1168H28.1667M26.5333 2.85013L28.0033 2.1968M16.7333 33.8835V20.8168L19.1833 19.1835L21.6333 20.8168V29.8001L24.9 28.1668L27.35 29.8001L29.8 28.1668L33.0667 30.6168V38.7835H14.2833L11.8333 34.7001L14.2833 28.9835H16.7333M24.9 15.9168V11.8335L20 10.2001L15.1 11.8335V15.9168H24.9ZM23.2667 6.93346L20 8.5668L16.7333 6.93346V2.85013L20 1.2168L23.2667 2.85013V6.93346ZM37.9667 20.8168V16.7335L33.0667 15.1001L28.1667 16.7335V20.8168H37.9667ZM36.3333 11.8335L33.0667 13.4668L29.8 11.8335V7.75013L33.0667 6.1168L36.3333 7.75013V11.8335ZM11.8333 20.8168V16.7335L6.93332 15.1001L2.03333 16.7335V20.8168H11.8333ZM10.2 11.8335L6.93332 13.4668L3.66666 11.8335V7.75013L6.93332 6.1168L10.2 7.75013V11.8335Z" stroke="#092F63" stroke-width="1.66667" stroke-miterlimit="10" stroke-linecap="round" stroke-linejoin="round"/>
</svg>
