<svg width="40" height="40" viewBox="0 0 40 40" fill="none" xmlns="http://www.w3.org/2000/svg">
<path d="M37.0433 29.3733L20 38.75L2.95667 29.3733V10.6267L20 1.25L37.0433 10.625V29.3733Z" fill="white"/>
<path d="M37.0433 10.6265V29.3731L20 38.7498L2.95667 29.3731L37.0433 10.6265Z" fill="#BBD8FF"/>
<path d="M20 33.6332V30.2265M10.6267 10.6265L13.1834 13.1832M29.3734 10.6265L26.8184 13.1832M10.6267 29.3732L13.1834 26.8165M29.3734 29.3732L26.8184 26.8165M6.3667 19.9998H9.77337M33.6334 19.9998H30.2267M20 8.06982V19.9998H26.8167" stroke="#092F63" stroke-width="1.66667" stroke-miterlimit="10" stroke-linecap="round" stroke-linejoin="round"/>
<path d="M37.0433 29.3733L20 38.75L2.95667 29.3733V10.6267L20 1.25L37.0433 10.625V29.3733Z" stroke="#092F63" stroke-width="1.66667" stroke-miterlimit="10" stroke-linecap="round" stroke-linejoin="round"/>
</svg>
