<svg width="40" height="40" viewBox="0 0 40 40" fill="none" xmlns="http://www.w3.org/2000/svg">
<path d="M37.9667 15.9168L34.7 12.6501L29.8 17.5501V4.48346H22.45L24.0833 1.2168H7.74999L9.38332 4.48346H2.03333V38.7835H29.8V24.0835L37.9667 15.9168Z" fill="white"/>
<path d="M21.7966 28.9837H24.9L37.9666 15.917L36.4966 14.447L21.7966 28.9837ZM8.89331 3.66699L10.0366 6.11699H21.47L22.7766 3.66699H8.89331ZM21.6333 6.93366H10.2V8.56699H21.6333V6.93366Z" fill="#BBD8FF"/>
<path d="M22.45 4.4834H29.8V11.0167M29.8 28.9834V38.7834H2.03333V4.4834H9.38332M6.93332 28.9834H16.7333M6.93332 22.4501H16.7333M6.93332 15.9167H23.2667" stroke="#092F63" stroke-width="2" stroke-miterlimit="10" stroke-linecap="round" stroke-linejoin="round"/>
<path d="M21.6333 25.7168V28.9835H24.9L37.9667 15.9168L34.7 12.6501L21.6333 25.7168ZM24.0833 1.2168L21.47 6.1168H10.0367L7.75 1.2168H24.0833Z" stroke="#092F63" stroke-width="2" stroke-miterlimit="10" stroke-linecap="round" stroke-linejoin="round"/>
</svg>
