<svg width="40" height="40" viewBox="0 0 40 40" fill="none" xmlns="http://www.w3.org/2000/svg">
<path d="M29.7999 22.4501H30.6166L32.2499 20.0001L31.4333 17.5501L33.0666 15.1001L31.4333 12.6501L33.0666 10.2001L31.4333 7.75013H28.1666L31.4333 1.2168H19.9999L21.4699 4.1568L17.5499 6.1168L15.0999 11.0168L9.38328 12.6501V11.0168H4.48328V22.4501H9.38328V20.8168L20.8166 22.4501L15.9166 27.3501V35.5168L25.7166 38.7835L35.5166 35.5168V27.3501L29.7999 22.4501Z" fill="white"/>
<path d="M15.9166 32.2486V35.517L25.7166 38.7836L35.5166 35.517V32.2486L25.7166 35.5153L15.9166 32.2486ZM9.38328 13.467H4.48328V22.4503H9.38328V13.467ZM22.0416 5.30029L23.2666 7.75029H28.1666L29.3916 5.30029H22.0416Z" fill="#BBD8FF"/>
<path d="M27.35 27.3502H24.0833L23.2666 28.9836L24.0833 30.6169H27.35L28.1666 32.2502L27.35 33.8836H24.0833M25.7166 27.3502V25.7169M25.7166 35.5169V33.8836M30.6166 22.4502H20.8166L9.3833 20.8169" stroke="#092F63" stroke-linecap="round" stroke-linejoin="round"/>
<path d="M23.2666 7.75007H31.4333L33.0666 10.2001L31.4333 12.6501L33.0666 15.1001L31.4333 17.5501L32.2499 20.0001L30.6166 22.4501M9.38328 12.6501L15.0999 11.0167L17.5499 6.11674L21.4699 4.15674M9.38328 11.0167H4.48328V22.4501H9.38328V11.0167Z" stroke="#092F63" stroke-linecap="round" stroke-linejoin="round"/>
<path d="M29.8 22.4502L35.5166 27.3502V35.5169L25.7166 38.7835L15.9166 35.5169V27.3502L20.8166 22.4502" stroke="#092F63" stroke-linejoin="round"/>
<path d="M19.9999 1.2168L23.2666 7.75013H28.1666L31.4333 1.2168H19.9999Z" stroke="#092F63" stroke-linecap="round" stroke-linejoin="round"/>
</svg>
