<svg width="40" height="40" viewBox="0 0 40 40" fill="none" xmlns="http://www.w3.org/2000/svg">
<path d="M33.6333 20.0001V34.2951L20 37.0451L6.36665 34.2951V20.0001M23.4083 9.77341L26.8166 14.8867H32.7833L38.7483 8.92174L32.7817 2.95508H7.21665L1.25165 8.92341L7.21831 14.8901H13.1833L16.5916 9.77508L23.4083 9.77341Z" fill="white"/>
<path d="M7.21667 14.8869H13.1833L16.5917 9.77354H23.4083L26.8167 14.8869H32.7833L38.7483 8.92188H1.25L7.21667 14.8869Z" fill="#BBD8FF"/>
<path d="M13.1833 20.0001H14.8866M19.1483 20.0001H20.8516M25.1133 20.0001H26.8166M13.1833 25.1134H14.8866M19.1483 25.1134H20.8516M25.1133 25.1134H26.8166M13.1833 30.2267H14.8866M19.1483 30.2267H20.8516M25.1133 30.2267H26.8166M33.6333 20.0001V34.2951L20 37.0451L6.36665 34.2951V20.0001M23.4083 9.77341L26.8166 14.8867H32.7833L38.7483 8.92174L32.7817 2.95508H7.21665L1.25165 8.92341L7.21831 14.8901H13.1833L16.5916 9.77508L23.4083 9.77341Z" stroke="#092F63" stroke-linecap="round" stroke-linejoin="round"/>
</svg>
