<svg width="24" height="24" viewBox="0 0 24 24" fill="none" xmlns="http://www.w3.org/2000/svg">
<g clip-path="url(#clip0_738_203)">
<path d="M15.0677 13.023L11.9997 14.557L8.93172 13.023V9.44303L11.9997 7.91003L15.0677 9.44403V13.023ZM6.88672 19.385V17.113L11.9997 15.579L17.1127 17.113V19.385L11.9997 22.226L6.88672 19.385Z" fill="white"/>
<path d="M15.0686 10.977H11.4886L8.93359 9.44403L12.0006 7.91003L15.0686 9.44403V10.977Z" fill="#BBD8FF"/>
<path d="M12 19.158V23.248M12 0.750977V4.84098M23.249 12H19.159M4.84195 12H0.751953M2.79695 6.88698L12 1.77398L21.204 6.88698V17.113L12 22.226L2.79695 17.113V6.88698Z" stroke="#092F63" stroke-linecap="round" stroke-linejoin="round"/>
<path d="M15.0677 13.023L11.9997 14.557L8.93172 13.023V9.44303L11.9997 7.91003L15.0677 9.44403V13.023ZM6.88672 19.385V17.113L11.9997 15.579L17.1127 17.113V19.385L11.9997 22.226L6.88672 19.385Z" stroke="#092F63" stroke-linecap="round" stroke-linejoin="round"/>
<path d="M15.0686 10.977H11.4886L8.93359 9.44403L12.0006 7.91003L15.0686 9.44403V10.977Z" stroke="#092F63" stroke-linecap="round" stroke-linejoin="round"/>
</g>
<defs>
<clipPath id="clip0_738_203">
<rect width="24" height="24" fill="white"/>
</clipPath>
</defs>
</svg>
